<svg width="20" height="20" viewBox="0 0 20 20" fill="none" xmlns="http://www.w3.org/2000/svg">
<g clip-path="url(#clip0_12_164)">
<path d="M6.24998 3.75V7.5H7.49998V3.75H6.24998ZM3.74998 5V8.75H4.99998V5H3.74998ZM8.74998 5V8.75H9.99998V5H8.74998ZM20 8.75C15.9673 8.75 13.3676 9.83909 13.0029 10H0.624982C0.525912 9.99995 0.428252 10.0235 0.340051 10.0686C0.25185 10.1137 0.175637 10.1791 0.117694 10.2595C0.0597506 10.3398 0.021738 10.4328 0.00678998 10.5307C-0.00815802 10.6287 0.000386761 10.7288 0.0317198 10.8228L0.996075 13.7183C1.25046 14.4833 1.97189 15 2.77586 15H10.9741C11.7787 15 12.4998 14.4824 12.7539 13.7183L13.6279 11.0962C14.181 10.8624 16.435 10 20 10V8.75ZM1.49168 11.25H12.2583L11.5674 13.3228C11.4815 13.5811 11.247 13.75 10.9741 13.75H2.77586C2.50483 13.75 2.26821 13.5802 2.1826 13.3228L1.49168 11.25Z" fill="#1C0F13" fill-opacity="0.45"/>
</g>
<defs>
<clipPath id="clip0_12_164">
<rect width="20" height="20" fill="white"/>
</clipPath>
</defs>
</svg>
